<svg width="128" height="128" viewBox="0 0 128 128" xmlns="http://www.w3.org/2000/svg">
  <defs>
    <linearGradient id="grad" x1="0%" y1="0%" x2="100%" y2="100%">
      <stop offset="0%" style="stop-color:#007bff;stop-opacity:1" />
      <stop offset="100%" style="stop-color:#0056b3;stop-opacity:1" />
    </linearGradient>
  </defs>
  
  <!-- Background circle -->
  <circle cx="64" cy="64" r="60" fill="url(#grad)" stroke="#fff" stroke-width="4"/>
  
  <!-- Brain icon -->
  <path d="M45 35c-8 0-15 7-15 15 0 3 1 6 3 8-2 2-3 5-3 8 0 8 7 15 15 15h38c8 0 15-7 15-15 0-3-1-6-3-8 2-2 3-5 3-8 0-8-7-15-15-15-2 0-4 0-6 1-3-6-9-10-16-10s-13 4-16 10c-2-1-4-1-6-1z" fill="white"/>
  
  <!-- Neural connections -->
  <circle cx="50" cy="45" r="3" fill="#007bff"/>
  <circle cx="65" cy="40" r="3" fill="#007bff"/>
  <circle cx="78" cy="50" r="3" fill="#007bff"/>
  <circle cx="55" cy="60" r="3" fill="#007bff"/>
  <circle cx="72" cy="65" r="3" fill="#007bff"/>
  
  <!-- Connection lines -->
  <line x1="50" y1="45" x2="65" y2="40" stroke="#007bff" stroke-width="2"/>
  <line x1="65" y1="40" x2="78" y2="50" stroke="#007bff" stroke-width="2"/>
  <line x1="50" y1="45" x2="55" y2="60" stroke="#007bff" stroke-width="2"/>
  <line x1="55" y1="60" x2="72" y2="65" stroke="#007bff" stroke-width="2"/>
  <line x1="78" y1="50" x2="72" y2="65" stroke="#007bff" stroke-width="2"/>
</svg>